<?xml version="1.0" standalone="no"?>
<!DOCTYPE svg PUBLIC "-//W3C//DTD SVG 1.1//EN"
  "http://www.w3.org/Graphics/SVG/1.1/DTD/svg11.dtd">
<svg version="1.1" xmlns="http://www.w3.org/2000/svg" xmlns:xlink="http://www.w3.org/1999/xlink" width="1030" height="621" viewBox="-559.9999999999999 -106.17961165048541 1839.9999999999998 1109.3592233009708" id="ccdiagram"><filter id="grayscale"><feColorMatrix type="matrix" values="0.3333 0.3333 0.3333 0 0 0.3333 0.3333 0.3333 0 0 0.3333 0.3333 0.3333 0 0 0 0 0 1 0"></feColorMatrix></filter><defs><style type="text/css">@import url('https://fonts.googleapis.com/css?family=Open+Sans:400,700|Inconsolata:400');</style></defs><g><g pointer-events="auto"><g opacity="1"><g id="35155d75-a622-4a82-bd9c-6475b766e114"><svg x="336" y="28" overflow="visible"><g fill="#e8e8e8"><polygon points="0 0, 192 111, -528 527, -720 416" stroke="#e8e8e8" stroke-width="40"></polygon></g></svg></g></g><g opacity="1"><g id="d3caf0f6-9837-4e1d-95db-210e74b8cc15"><svg x="624" y="194" overflow="visible"><g fill="#e8e8e8"><polygon points="0 0, 192 111, -528 527, -720 416" stroke="#e8e8e8" stroke-width="40"></polygon></g></svg></g></g><g opacity="1"><g><g><polygon points="-128 611, -32 666, -80 694, -112 694, -176 657, -176 638" fill="#000000" stroke-width="0" stroke="#818181"></polygon></g></g></g><g opacity="1"><g><g><polygon points="-416 444, -320 500, -368 527, -400 527, -464 490, -464 472" fill="#000000" stroke-width="0" stroke="#818181"></polygon></g></g></g><g opacity="1"><g id="83b092fc-fd19-4431-b319-4acd73dcdce1"><svg x="912" y="361" overflow="visible"><g fill="#e8e8e8"><polygon points="0 0, 192 111, -528 527, -720 416" stroke="#e8e8e8" stroke-width="40"></polygon></g></svg></g></g><g opacity="1"><g><g><polygon points="160 777, 256 833, 208 860, 176 860, 112 823, 112 805" fill="#000000" stroke-width="0" stroke="#818181"></polygon></g></g></g><g opacity="1"><g><g><polygon points="-32 322, 64 377, 64 414, -48 479, -112 479, -208 424, -208 387, -96 322" fill="#000000" opacity="0.2"></polygon><polygon points="-32 315, 64 370, 64 407, -48 472, -112 472, -208 416, -208 379, -96 315" fill="#ffffff" stroke-width="2" stroke="#818181"></polygon><polygon points="-64 333, 32 389, -80 453, -176 398" fill="#8bc34a" stroke-width="0" stroke="#818181"></polygon></g></g></g><g opacity="1"><g><g><polygon points="256 488, 352 544, 352 581, 240 646, 176 646, 80 590, 80 553, 192 488" fill="#000000" opacity="0.2"></polygon><polygon points="256 481, 352 537, 352 574, 240 638, 176 638, 80 583, 80 546, 192 481" fill="#ffffff" stroke-width="2" stroke="#818181"></polygon><polygon points="224 500, 320 555, 208 620, 112 564" fill="#8bc34a" stroke-width="0" stroke="#818181"></polygon></g></g></g><g opacity="1"><g><g><polygon points="544 655, 640 710, 640 747, 528 812, 464 812, 368 757, 368 720, 480 655" fill="#000000" opacity="0.2"></polygon><polygon points="544 648, 640 703, 640 740, 528 805, 464 805, 368 749, 368 712, 480 648" fill="#ffffff" stroke-width="2" stroke="#818181"></polygon><polygon points="512 666, 608 722, 496 786, 400 731" fill="#8bc34a" stroke-width="0" stroke="#818181"></polygon></g></g></g><g opacity="1"><g><g><polygon points="288 137, 384 192, 384 229, 272 294, 208 294, 112 239, 112 202, 224 137" fill="#000000" opacity="0.2"></polygon><polygon points="288 130, 384 185, 384 222, 272 287, 208 287, 112 231, 112 194, 224 130" fill="#ffffff" stroke-width="2" stroke="#818181"></polygon><polygon points="256 148, 352 204, 240 268, 144 213" fill="#ff5722" stroke-width="0" stroke="#818181"></polygon></g></g></g><g opacity="1"><g><g><polygon points="576 303, 672 359, 672 396, 560 461, 496 461, 400 405, 400 368, 512 303" fill="#000000" opacity="0.2"></polygon><polygon points="576 296, 672 352, 672 389, 560 453, 496 453, 400 398, 400 361, 512 296" fill="#ffffff" stroke-width="2" stroke="#818181"></polygon><polygon points="544 315, 640 370, 528 435, 432 379" fill="#ff5722" stroke-width="0" stroke="#818181"></polygon></g></g></g><g opacity="1"><g><g><polygon points="864 470, 960 525, 960 562, 848 627, 784 627, 688 572, 688 535, 800 470" fill="#000000" opacity="0.2"></polygon><polygon points="864 463, 960 518, 960 555, 848 620, 784 620, 688 564, 688 527, 800 463" fill="#ffffff" stroke-width="2" stroke="#818181"></polygon><polygon points="832 481, 928 537, 816 601, 720 546" fill="#ff5722" stroke-width="0" stroke="#818181"></polygon></g></g></g></g><g pointer-events="auto"></g><g pointer-events="auto"></g><g></g><g pointer-events="auto"><g opacity="1"><g id="4e99d22e-e813-4a4c-8961-4fdf4f78ee84"><g><g><polygon points="496 971, 1248 537, 224 -55, -528 379" stroke="#000000" stroke-width="8" fill="none"></polygon></g><g><polygon points="224 -55, 192 -74, -32 56, -32 93" stroke="#000000" stroke-width="8" fill="#000000"></polygon><text font-family="Inconsolata" font-size="20pt" font-weight="bold" fill="#ffffff" transform="translate(184 -43) matrix(0.707 -0.409 0.707 0.409 0 0)" text-anchor="end">lab-01-prod</text><g transform="translate(192 -69) matrix(0.707 0.409 -0.707 0.409 0 0)"><svg width="34" height="32" style="fill: rgb(255, 255, 255);"><svg xmlns="http://www.w3.org/2000/svg" width="34" height="32" viewBox="0 0 34 32"><path d="M34.286 20.571a6.858 6.858 0 0 1-6.857 6.857H8c-4.411 0-8-3.589-8-8a7.993 7.993 0 0 1 4.607-7.232c-.018-.25-.036-.518-.036-.768a9.137 9.137 0 0 1 9.143-9.143c3.821 0 7.089 2.339 8.464 5.679a4.439 4.439 0 0 1 2.964-1.107 4.58 4.58 0 0 1 4.571 4.571 4.49 4.49 0 0 1-.732 2.464c3.036.714 5.304 3.429 5.304 6.679z"></path></svg></svg></g></g></g></g></g></g><g></g><g pointer-events="auto"><g opacity="1"><g id="6b8148cb-f215-45b9-8b30-f08e138e58a1"><g><g><polygon transform="matrix(-0.707 -0.409 0.707 -0.409 0 0)" points="-542.7 -700.9875000000001, -587.9250000000001 -655.7625, -587.9250000000001 -407.02500000000003, -542.7 -361.8, -271.35 -361.8, -271.35 -655.7625, -316.575 -700.9875000000001" stroke-width="11.2" stroke="#8bc34a" stroke-dasharray="16" fill="none"></polygon></g><g><polygon points="-64 259, -96 241, -272 342, -272 379" stroke="#8bc34a" stroke-width="8" fill="#8bc34a"></polygon><text font-family="Inconsolata" font-size="20pt" font-weight="bold" fill="#ffffff" transform="translate(-113 277) matrix(0.707 -0.409 0.707 0.409 0 0)" text-anchor="end">pub-subnet-a</text><g transform="translate(-96 250) matrix(0.707 0.409 -0.707 0.409 0 0)"><svg width="21" height="32" style="fill: rgb(255, 255, 255);"><svg xmlns="http://www.w3.org/2000/svg" width="21" height="32" viewBox="0 0 21 32"><path d="M5.714 13.714h9.143v-3.429c0-2.518-2.054-4.571-4.571-4.571s-4.571 2.054-4.571 4.571v3.429zm14.857 1.715v10.286c0 .946-.768 1.714-1.714 1.714H1.714A1.715 1.715 0 0 1 0 25.715V15.429c0-.946.768-1.714 1.714-1.714h.571v-3.429c0-4.393 3.607-8 8-8s8 3.607 8 8v3.429h.571c.946 0 1.714.768 1.714 1.714z"></path></svg></svg></g></g></g></g></g><g opacity="1"><g id="450c0347-acd1-4df6-ad7e-f456b279c403"><g><g><polygon transform="matrix(-0.707 -0.409 0.707 -0.409 0 0)" points="-949.725 -700.9875000000001, -994.95 -655.7625, -994.95 -407.02500000000003, -949.725 -361.8, -678.375 -361.8, -678.375 -655.7625, -723.6 -700.9875000000001" stroke-width="11.2" stroke="#8bc34a" stroke-dasharray="16" fill="none"></polygon></g><g><polygon points="224 426, 192 407, 16 509, 16 546" stroke="#8bc34a" stroke-width="8" fill="#8bc34a"></polygon><text font-family="Inconsolata" font-size="20pt" font-weight="bold" fill="#ffffff" transform="translate(175 443) matrix(0.707 -0.409 0.707 0.409 0 0)" text-anchor="end">pub-subnet-b</text><g transform="translate(192 417) matrix(0.707 0.409 -0.707 0.409 0 0)"><svg width="21" height="32" style="fill: rgb(255, 255, 255);"><svg xmlns="http://www.w3.org/2000/svg" width="21" height="32" viewBox="0 0 21 32"><path d="M5.714 13.714h9.143v-3.429c0-2.518-2.054-4.571-4.571-4.571s-4.571 2.054-4.571 4.571v3.429zm14.857 1.715v10.286c0 .946-.768 1.714-1.714 1.714H1.714A1.715 1.715 0 0 1 0 25.715V15.429c0-.946.768-1.714 1.714-1.714h.571v-3.429c0-4.393 3.607-8 8-8s8 3.607 8 8v3.429h.571c.946 0 1.714.768 1.714 1.714z"></path></svg></svg></g></g></g></g></g><g opacity="1"><g id="14033e72-10c3-403f-9bf8-b590ee17e5f5"><g><g><polygon transform="matrix(-0.707 -0.409 0.707 -0.409 0 0)" points="-1356.75 -700.9875000000001, -1401.9750000000001 -655.7625, -1401.9750000000001 -407.02500000000003, -1356.75 -361.8, -1085.4 -361.8, -1085.4 -655.7625, -1130.625 -700.9875000000001" stroke-width="11.2" stroke="#8bc34a" stroke-dasharray="16" fill="none"></polygon></g><g><polygon points="512 592, 480 574, 304 675, 304 712" stroke="#8bc34a" stroke-width="8" fill="#8bc34a"></polygon><text font-family="Inconsolata" font-size="20pt" font-weight="bold" fill="#ffffff" transform="translate(463 610) matrix(0.707 -0.409 0.707 0.409 0 0)" text-anchor="end">pub-subnet-c</text><g transform="translate(480 583) matrix(0.707 0.409 -0.707 0.409 0 0)"><svg width="21" height="32" style="fill: rgb(255, 255, 255);"><svg xmlns="http://www.w3.org/2000/svg" width="21" height="32" viewBox="0 0 21 32"><path d="M5.714 13.714h9.143v-3.429c0-2.518-2.054-4.571-4.571-4.571s-4.571 2.054-4.571 4.571v3.429zm14.857 1.715v10.286c0 .946-.768 1.714-1.714 1.714H1.714A1.715 1.715 0 0 1 0 25.715V15.429c0-.946.768-1.714 1.714-1.714h.571v-3.429c0-4.393 3.607-8 8-8s8 3.607 8 8v3.429h.571c.946 0 1.714.768 1.714 1.714z"></path></svg></svg></g></g></g></g></g><g opacity="1"><g id="085b01d1-d95a-466e-a194-8d4bd34ad28c"><g><g><polygon transform="matrix(-0.707 -0.409 0.707 -0.409 0 0)" points="-542.7 -248.7375, -587.9250000000001 -203.51250000000002, -587.9250000000001 45.225, -542.7 90.45, -271.35 90.45, -271.35 -203.51250000000002, -316.575 -248.7375" stroke-width="11.2" stroke="#f44336" stroke-dasharray="16" fill="none"></polygon></g><g><polygon points="256 74, 224 56, 48 157, 48 194" stroke="#f44336" stroke-width="8" fill="#f44336"></polygon><text font-family="Inconsolata" font-size="20pt" font-weight="bold" fill="#ffffff" transform="translate(207 92) matrix(0.707 -0.409 0.707 0.409 0 0)" text-anchor="end">priv-subnet-a</text><g transform="translate(224 65) matrix(0.707 0.409 -0.707 0.409 0 0)"><svg width="21" height="32" style="fill: rgb(255, 255, 255);"><svg xmlns="http://www.w3.org/2000/svg" width="21" height="32" viewBox="0 0 21 32"><path d="M5.714 13.714h9.143v-3.429c0-2.518-2.054-4.571-4.571-4.571s-4.571 2.054-4.571 4.571v3.429zm14.857 1.715v10.286c0 .946-.768 1.714-1.714 1.714H1.714A1.715 1.715 0 0 1 0 25.715V15.429c0-.946.768-1.714 1.714-1.714h.571v-3.429c0-4.393 3.607-8 8-8s8 3.607 8 8v3.429h.571c.946 0 1.714.768 1.714 1.714z"></path></svg></svg></g></g></g></g></g><g opacity="1"><g id="71917ad0-a45c-40e6-acfb-f066cbdcdfd8"><g><g><polygon transform="matrix(-0.707 -0.409 0.707 -0.409 0 0)" points="-949.725 -248.7375, -994.95 -203.51250000000002, -994.95 45.225, -949.725 90.45, -678.375 90.45, -678.375 -203.51250000000002, -723.6 -248.7375" stroke-width="11.2" stroke="#f44336" stroke-dasharray="16" fill="none"></polygon></g><g><polygon points="544 241, 512 222, 336 324, 336 361" stroke="#f44336" stroke-width="8" fill="#f44336"></polygon><text font-family="Inconsolata" font-size="20pt" font-weight="bold" fill="#ffffff" transform="translate(495 258) matrix(0.707 -0.409 0.707 0.409 0 0)" text-anchor="end">priv-subnet-b</text><g transform="translate(512 232) matrix(0.707 0.409 -0.707 0.409 0 0)"><svg width="21" height="32" style="fill: rgb(255, 255, 255);"><svg xmlns="http://www.w3.org/2000/svg" width="21" height="32" viewBox="0 0 21 32"><path d="M5.714 13.714h9.143v-3.429c0-2.518-2.054-4.571-4.571-4.571s-4.571 2.054-4.571 4.571v3.429zm14.857 1.715v10.286c0 .946-.768 1.714-1.714 1.714H1.714A1.715 1.715 0 0 1 0 25.715V15.429c0-.946.768-1.714 1.714-1.714h.571v-3.429c0-4.393 3.607-8 8-8s8 3.607 8 8v3.429h.571c.946 0 1.714.768 1.714 1.714z"></path></svg></svg></g></g></g></g></g><g opacity="1"><g id="cc7d8ad0-80ed-466e-9df1-4684b357df45"><g><g><polygon transform="matrix(-0.707 -0.409 0.707 -0.409 0 0)" points="-1356.75 -248.7375, -1401.9750000000001 -203.51250000000002, -1401.9750000000001 45.225, -1356.75 90.45, -1085.4 90.45, -1085.4 -203.51250000000002, -1130.625 -248.7375" stroke-width="11.2" stroke="#f44336" stroke-dasharray="16" fill="none"></polygon></g><g><polygon points="832 407, 800 389, 624 490, 624 527" stroke="#f44336" stroke-width="8" fill="#f44336"></polygon><text font-family="Inconsolata" font-size="20pt" font-weight="bold" fill="#ffffff" transform="translate(783 425) matrix(0.707 -0.409 0.707 0.409 0 0)" text-anchor="end">priv-subnet-c</text><g transform="translate(800 398) matrix(0.707 0.409 -0.707 0.409 0 0)"><svg width="21" height="32" style="fill: rgb(255, 255, 255);"><svg xmlns="http://www.w3.org/2000/svg" width="21" height="32" viewBox="0 0 21 32"><path d="M5.714 13.714h9.143v-3.429c0-2.518-2.054-4.571-4.571-4.571s-4.571 2.054-4.571 4.571v3.429zm14.857 1.715v10.286c0 .946-.768 1.714-1.714 1.714H1.714A1.715 1.715 0 0 1 0 25.715V15.429c0-.946.768-1.714 1.714-1.714h.571v-3.429c0-4.393 3.607-8 8-8s8 3.607 8 8v3.429h.571c.946 0 1.714.768 1.714 1.714z"></path></svg></svg></g></g></g></g></g></g><g pointer-events="auto"></g><g pointer-events="none"></g><g pointer-events="auto"><g id="2685515d-0fdf-4c31-b26d-7cf5ad8c321d-35d3e61b-bd0a-4d57-9f2d-00c43a8d0b7d"><g cursor="cell"><line x1="-220" y1="811" x2="0" y2="685" stroke="red" stroke-width="8" opacity="0"></line><line x1="-220" y1="811" x2="0" y2="685" stroke="#000000" stroke-width="2" stroke-linecap="round"></line></g></g><g id="c706cf05-973e-47e8-a3dd-548a39a04d1f-1cb81e0e-1bc8-484b-8eea-ddc520ab218b"><g cursor="cell"><line x1="-32" y1="370" x2="160" y2="259" stroke="red" stroke-width="8" opacity="0"></line><line x1="-32" y1="370" x2="160" y2="259" stroke="#000000" stroke-width="2" stroke-linecap="round"></line></g></g><g id="c706cf05-973e-47e8-a3dd-548a39a04d1f-e28f72cc-516a-45f4-9a66-b4209767b774"><g cursor="cell"><line x1="-32" y1="370" x2="80" y2="305" stroke="red" stroke-width="8" opacity="0"></line><line x1="-32" y1="370" x2="80" y2="305" stroke="#000000" stroke-width="2" stroke-linecap="round"></line></g></g><g id="e28f72cc-516a-45f4-9a66-b4209767b774-fbfd3c5b-2ff6-46ce-adff-771adb58f567"><g cursor="cell"><line x1="80" y1="305" x2="368" y2="472" stroke="red" stroke-width="8" opacity="0"></line><line x1="80" y1="305" x2="368" y2="472" stroke="#000000" stroke-width="2" stroke-linecap="round"></line></g></g><g id="fbfd3c5b-2ff6-46ce-adff-771adb58f567-b0a58488-eb8e-448c-8ba8-d712eb7a1d72"><g cursor="cell"><line x1="368" y1="472" x2="448" y2="426" stroke="red" stroke-width="8" opacity="0"></line><line x1="368" y1="472" x2="448" y2="426" stroke="#000000" stroke-width="2" stroke-linecap="round"></line></g></g><g id="e28f72cc-516a-45f4-9a66-b4209767b774-32da3261-145d-4ff9-8e2f-6ee2728b4150"><g cursor="cell"><line x1="80" y1="305" x2="656" y2="638" stroke="red" stroke-width="8" opacity="0"></line><line x1="80" y1="305" x2="656" y2="638" stroke="#000000" stroke-width="2" stroke-linecap="round"></line></g></g><g id="32da3261-145d-4ff9-8e2f-6ee2728b4150-ce4059f6-3a21-498c-a9a6-d8bdbbde1b3f"><g cursor="cell"><line x1="656" y1="638" x2="736" y2="592" stroke="red" stroke-width="8" opacity="0"></line><line x1="656" y1="638" x2="736" y2="592" stroke="#000000" stroke-width="2" stroke-linecap="round"></line></g></g></g><g pointer-events="auto"><g opacity="1"><g id="385bf2aa-523d-4fb5-9330-8d653d73efee" transform="translate(0 0)"><svg x="-206" y="85" height="108.05" width="123" viewBox="0 0 32.544 28.588"><path d="M10.115 6.02v14.218l7.873-4.318V1.474z" fill="#b8b8bb" fill-rule="evenodd" stroke="#83838a" stroke-linejoin="round" stroke-width=".268"></path><path d="m.265 2.228 9.85 3.791v14.219l-9.85-8.531z" fill="#d2d2d4" fill-rule="evenodd" stroke="#83838a" stroke-linejoin="round" stroke-width=".265"></path><path d="m10.115 6.02 7.873-4.546L3.548.332.265 2.228z" fill="#ececed" fill-rule="evenodd" stroke="#83838a" stroke-linejoin="round" stroke-width=".265"></path><path d="m.265 11.707 9.85 8.53 7.873-4.317V1.474L3.392.271.265 2.076z" fill="none" stroke="#000000" stroke-width=".529"></path><path d="M22.429 3.65 14.22 8.39l14.828 10.397 3.231-1.866z" fill="#ececed" fill-rule="evenodd" stroke="#83838a" stroke-width=".268"></path><path d="M14.22 8.39V22.61l14.777 5.687.051-9.509z" fill="#d2d2d4" fill-rule="evenodd" stroke="#83838a" stroke-width=".265"></path><path d="m29.048 18.787 3.231-1.866V26.4l-3.282 1.897z" fill="#b8b8bb" fill-rule="evenodd" stroke="#83838a" stroke-width=".265"></path><path d="M22.429 3.65 14.22 8.39V22.61l14.777 5.687 3.282-1.897v-9.478z" fill="none" stroke="#000000" stroke-width=".529"></path><path d="M25.604 20.872c-.071-.975-.928-2.116-1.982-2.599a2.547 2.547 0 0 0-.398-.144c-.566-.91-1.446-1.74-2.441-2.195-1.501-.687-2.76-.293-3.057.872-1.062-.091-1.77.532-1.77 1.597 0 1.436 1.27 3.181 2.84 3.899l5.961 2.73c1.41.645 2.555.121 2.555-1.17 0-1.004-.695-2.2-1.708-2.99zm-.847 3.38-5.962-2.73c-1.098-.502-1.987-1.723-1.987-2.729 0-.916.74-1.336 1.704-1.022v-.018c0-1.148 1.016-1.613 2.27-1.04.95.435 1.763 1.34 2.102 2.252.198-.065.456-.041.738.088.626.287 1.135.986 1.135 1.56a.657.657 0 0 1-.156.454c.052.019.105.042.156.065.94.43 1.704 1.479 1.704 2.34 0 .86-.763 1.21-1.704.78z" fill="#000000"></path></svg></g></g><g opacity="1"><g id="c706cf05-973e-47e8-a3dd-548a39a04d1f" transform="translate(0 0)"><svg x="-142" y="326" height="108.05" width="123" viewBox="0 0 32.544 28.588"><path d="M10.115 6.02v14.218l7.873-4.318V1.474z" fill="#ccc" fill-rule="evenodd" stroke="#999" stroke-linejoin="round" stroke-width=".268"></path><path d="m.265 2.228 9.85 3.791v14.219l-9.85-8.531z" fill="#e6e6e6" fill-rule="evenodd" stroke="#999" stroke-linejoin="round" stroke-width=".265"></path><path d="m10.115 6.02 7.873-4.546L3.548.332.265 2.228z" fill="#fff" fill-rule="evenodd" stroke="#999" stroke-linejoin="round" stroke-width=".265"></path><path d="m.265 11.707 9.85 8.53 7.873-4.317V1.474L3.392.271.265 2.076z" fill="none" stroke="#000000" stroke-width=".529"></path><path d="M22.429 3.65 14.22 8.39l14.828 10.397 3.231-1.866z" fill="#fff" fill-rule="evenodd" stroke="#999" stroke-width=".268"></path><path d="M14.22 8.39V22.61l14.777 5.687.051-9.509z" fill="#e6e6e6" fill-rule="evenodd" stroke="#999" stroke-width=".265"></path><path d="m29.048 18.787 3.231-1.866V26.4l-3.282 1.897z" fill="#ccc" fill-rule="evenodd" stroke="#999" stroke-width=".265"></path><path d="M22.429 3.65 14.22 8.39V22.61l14.777 5.687 3.282-1.897v-9.478z" fill="none" stroke="#000000" stroke-width=".529"></path><path d="m18.582 19.764-1.527-.59c-.28-.108-.509-.02-.509.197v1.179c0 .217.228.48.51.59l1.526.589c.28.108.509.02.509-.197v-1.178c0-.217-.228-.481-.51-.59zm-.382-1.13 3.053 1.18v.589l.763.294v-.589l3.053 1.179v.589l.763.295v-.707c0-.26-.274-.578-.61-.708l-3.206-1.237v-.786l.636.245c.281.109.509.02.509-.196v-1.179c0-.217-.228-.48-.509-.589l-2.035-.786c-.281-.108-.509-.02-.509.197v1.178c0 .217.228.481.509.59l.636.245v.786l-3.205-1.238c-.337-.13-.611-.024-.611.236v.707l.763.295zm4.198 2.603-1.527-.589c-.28-.108-.508-.02-.508.197v1.178c0 .217.227.481.508.59l1.527.589c.28.108.508.02.508-.196v-1.18c0-.216-.227-.48-.508-.589zm3.816 1.474-1.527-.59c-.28-.108-.509-.02-.509.197v1.179c0 .217.228.48.51.589l1.526.59c.28.108.508.02.508-.197V23.3c0-.217-.227-.48-.508-.59z" fill="#000000"></path></svg></g></g><g opacity="1"><g id="2685515d-0fdf-4c31-b26d-7cf5ad8c321d" transform="translate(0 0)"><svg x="-280" y="746" height="95.068" width="63" viewBox="0 0 16.669 25.153"><path d="M16.668 22.903q0 1.64-.864 2.091-.865.451-2.297-.376L3.161 18.645q-1.433-.827-2.297-2.276Q.001 14.921 0 13.28q0-.723.042-1.39.042-.666.166-1.394.124-.727.313-1.302.19-.575.51-1.039.319-.464.733-.683.414-.22 1.012-.147.598.073 1.32.49.107.06.497.58.391.52.882 1.165.491.646 1.279 1.394.788.75 1.58 1.207.793.458 1.58.618.788.161 1.28.083.49-.079.881-.147.39-.069.497-.007.722.416 1.32 1.035.598.619 1.013 1.315.414.697.734 1.531t.509 1.627q.19.793.313 1.664.124.872.166 1.586.042.713.042 1.438zM12.88 8.51q0 2.173-1.332 2.942-1.332.769-3.214-.318-1.882-1.086-3.214-3.393Q3.79 5.434 3.79 3.26q0-2.173 1.331-2.942 1.332-.77 3.214.317t3.214 3.394q1.332 2.306 1.332 4.48z" fill="#000" stroke="#000000" stroke-width=".268"></path></svg></g></g></g><g pointer-events="auto"></g><g pointer-events="auto"></g><g pointer-events="auto"><g opacity="1"><g id="1795d0b6-1f55-43b4-adbd-be2def759bde" transform="translate(0 0)"><svg x="-384" y="463" overflow="visible"><text stroke="#000000" stroke-width="2" font-family="Open Sans" y="65" font-size="50pt" fill="#ffffff" font-weight="bold" transform="matrix(0.707 0.409 -0.707 0.409 0 0)" xml:space="preserve"><tspan x="8" dy="0">A</tspan></text><text font-family="Open Sans" y="65" font-size="50pt" fill="#ffffff" font-weight="bold" transform="matrix(0.707 0.409 -0.707 0.409 0 0)" xml:space="preserve"><tspan x="8" dy="0">A</tspan></text></svg></g></g><g opacity="1"><g id="f8a0f67f-5135-447e-89cb-aaf7c9fcaf77" transform="translate(0 0)"><svg x="-352" y="777" overflow="visible"><text stroke="#ffffff" stroke-width="4" font-family="Open Sans" y="36.5" font-size="25pt" fill="#000000" font-weight="bold" transform="matrix(0.707 0.409 -0.707 0.409 0 0)" xml:space="preserve"><tspan x="8" dy="0">Lab Practitioner</tspan></text><text font-family="Open Sans" y="36.5" font-size="25pt" fill="#000000" font-weight="bold" transform="matrix(0.707 0.409 -0.707 0.409 0 0)" xml:space="preserve"><tspan x="8" dy="0">Lab Practitioner</tspan></text></svg></g></g><g opacity="1"><g id="c002a195-404a-45bc-b961-3a02ff5aa34f" transform="translate(0 0)"><svg x="-416" y="444" overflow="visible"><text stroke="#000000" stroke-width="2" font-family="Open Sans" y="36.5" font-size="25pt" fill="#ffffff" font-weight="bold" transform="matrix(0.707 0.409 -0.707 0.409 0 0)" xml:space="preserve"><tspan x="8" dy="0">AZ</tspan></text><text font-family="Open Sans" y="36.5" font-size="25pt" fill="#ffffff" font-weight="bold" transform="matrix(0.707 0.409 -0.707 0.409 0 0)" xml:space="preserve"><tspan x="8" dy="0">AZ</tspan></text></svg></g></g><g opacity="1"><g id="c0085955-c48d-4bf9-8132-d1a857911ea6" transform="translate(0 0)"><svg x="-80" y="638" overflow="visible"><text stroke="#000000" stroke-width="2" font-family="Open Sans" y="65" font-size="50pt" fill="#ffffff" font-weight="bold" transform="matrix(0.707 0.409 -0.707 0.409 0 0)" xml:space="preserve"><tspan x="8" dy="0">B</tspan></text><text font-family="Open Sans" y="65" font-size="50pt" fill="#ffffff" font-weight="bold" transform="matrix(0.707 0.409 -0.707 0.409 0 0)" xml:space="preserve"><tspan x="8" dy="0">B</tspan></text></svg></g></g><g opacity="1"><g id="c34f6a5e-dfdc-4d37-bc02-02d163d2108d" transform="translate(0 0)"><svg x="-128" y="611" overflow="visible"><text stroke="#000000" stroke-width="2" font-family="Open Sans" y="36.5" font-size="25pt" fill="#ffffff" font-weight="bold" transform="matrix(0.707 0.409 -0.707 0.409 0 0)" xml:space="preserve"><tspan x="8" dy="0">AZ</tspan></text><text font-family="Open Sans" y="36.5" font-size="25pt" fill="#ffffff" font-weight="bold" transform="matrix(0.707 0.409 -0.707 0.409 0 0)" xml:space="preserve"><tspan x="8" dy="0">AZ</tspan></text></svg></g></g><g opacity="1"><g id="f4109955-959c-44f1-8797-e3216686f221" transform="translate(0 0)"><svg x="208" y="805" overflow="visible"><text stroke="#000000" stroke-width="2" font-family="Open Sans" y="65" font-size="50pt" fill="#ffffff" font-weight="bold" transform="matrix(0.707 0.409 -0.707 0.409 0 0)" xml:space="preserve"><tspan x="8" dy="0">C</tspan></text><text font-family="Open Sans" y="65" font-size="50pt" fill="#ffffff" font-weight="bold" transform="matrix(0.707 0.409 -0.707 0.409 0 0)" xml:space="preserve"><tspan x="8" dy="0">C</tspan></text></svg></g></g><g opacity="1"><g id="febf9620-95d6-460b-afa1-0486688aa7a9" transform="translate(0 0)"><svg x="160" y="777" overflow="visible"><text stroke="#000000" stroke-width="2" font-family="Open Sans" y="36.5" font-size="25pt" fill="#ffffff" font-weight="bold" transform="matrix(0.707 0.409 -0.707 0.409 0 0)" xml:space="preserve"><tspan x="8" dy="0">AZ</tspan></text><text font-family="Open Sans" y="36.5" font-size="25pt" fill="#ffffff" font-weight="bold" transform="matrix(0.707 0.409 -0.707 0.409 0 0)" xml:space="preserve"><tspan x="8" dy="0">AZ</tspan></text></svg></g></g><g opacity="1"><g id="2b4220f0-cdb9-40bc-8ac7-ea78de5caf0a" transform="translate(0 0)"><svg x="80" y="46" overflow="visible"><text stroke="#ffffff" stroke-width="4" font-family="Open Sans" y="36.5" font-size="25pt" fill="#000000" font-weight="bold" transform="matrix(0.707 -0.409 0.707 0.409 0 0)" xml:space="preserve"><tspan x="8" dy="0">10.96.0.0/20</tspan></text><text font-family="Open Sans" y="36.5" font-size="25pt" fill="#000000" font-weight="bold" transform="matrix(0.707 -0.409 0.707 0.409 0 0)" xml:space="preserve"><tspan x="8" dy="0">10.96.0.0/20</tspan></text></svg></g></g><g opacity="1"><g id="76407f19-aba0-4628-a8ff-f6ef274e55c4" transform="translate(0 0)"><svg x="-192" y="389" overflow="visible"><text stroke="#ffffff" stroke-width="4" font-family="Open Sans" y="30.799999999999997" font-size="20pt" fill="#4caf50" font-weight="bold" transform="matrix(0.707 0.409 -0.707 0.409 0 0)" xml:space="preserve"><tspan x="8" dy="0">10.96.3.0/24</tspan></text><text font-family="Open Sans" y="30.799999999999997" font-size="20pt" fill="#4caf50" font-weight="bold" transform="matrix(0.707 0.409 -0.707 0.409 0 0)" xml:space="preserve"><tspan x="8" dy="0">10.96.3.0/24</tspan></text></svg></g></g><g opacity="1"><g id="78104b6f-293d-43d7-85f0-699f6643d1e2" transform="translate(0 0)"><svg x="96" y="555" overflow="visible"><text stroke="#ffffff" stroke-width="4" font-family="Open Sans" y="30.799999999999997" font-size="20pt" fill="#4caf50" font-weight="bold" transform="matrix(0.707 0.409 -0.707 0.409 0 0)" xml:space="preserve"><tspan x="8" dy="0">10.96.4.0/24</tspan></text><text font-family="Open Sans" y="30.799999999999997" font-size="20pt" fill="#4caf50" font-weight="bold" transform="matrix(0.707 0.409 -0.707 0.409 0 0)" xml:space="preserve"><tspan x="8" dy="0">10.96.4.0/24</tspan></text></svg></g></g><g opacity="1"><g id="73c3cf76-a225-4a8d-9183-a1d022c0a15c" transform="translate(0 0)"><svg x="384" y="722" overflow="visible"><text stroke="#ffffff" stroke-width="4" font-family="Open Sans" y="30.799999999999997" font-size="20pt" fill="#4caf50" font-weight="bold" transform="matrix(0.707 0.409 -0.707 0.409 0 0)" xml:space="preserve"><tspan x="8" dy="0">10.96.5.0/24</tspan></text><text font-family="Open Sans" y="30.799999999999997" font-size="20pt" fill="#4caf50" font-weight="bold" transform="matrix(0.707 0.409 -0.707 0.409 0 0)" xml:space="preserve"><tspan x="8" dy="0">10.96.5.0/24</tspan></text></svg></g></g><g opacity="1"><g id="79ee6dc9-b90c-4da4-995d-1721e56119f4" transform="translate(0 0)"><svg x="128" y="204" overflow="visible"><text stroke="#ffffff" stroke-width="4" font-family="Open Sans" y="30.799999999999997" font-size="20pt" fill="#f44336" font-weight="bold" transform="matrix(0.707 0.409 -0.707 0.409 0 0)" xml:space="preserve"><tspan x="8" dy="0">10.96.0.0/24</tspan></text><text font-family="Open Sans" y="30.799999999999997" font-size="20pt" fill="#f44336" font-weight="bold" transform="matrix(0.707 0.409 -0.707 0.409 0 0)" xml:space="preserve"><tspan x="8" dy="0">10.96.0.0/24</tspan></text></svg></g></g><g opacity="1"><g id="edf6dbda-991e-4244-bc7c-83782c714e53" transform="translate(0 0)"><svg x="416" y="370" overflow="visible"><text stroke="#ffffff" stroke-width="4" font-family="Open Sans" y="30.799999999999997" font-size="20pt" fill="#f44336" font-weight="bold" transform="matrix(0.707 0.409 -0.707 0.409 0 0)" xml:space="preserve"><tspan x="8" dy="0">10.96.1.0/24</tspan></text><text font-family="Open Sans" y="30.799999999999997" font-size="20pt" fill="#f44336" font-weight="bold" transform="matrix(0.707 0.409 -0.707 0.409 0 0)" xml:space="preserve"><tspan x="8" dy="0">10.96.1.0/24</tspan></text></svg></g></g><g opacity="1"><g id="ed314834-d823-49ab-a7cb-b40eba93154c" transform="translate(0 0)"><svg x="704" y="537" overflow="visible"><text stroke="#ffffff" stroke-width="4" font-family="Open Sans" y="30.799999999999997" font-size="20pt" fill="#f44336" font-weight="bold" transform="matrix(0.707 0.409 -0.707 0.409 0 0)" xml:space="preserve"><tspan x="8" dy="0">10.96.2.0/24</tspan></text><text font-family="Open Sans" y="30.799999999999997" font-size="20pt" fill="#f44336" font-weight="bold" transform="matrix(0.707 0.409 -0.707 0.409 0 0)" xml:space="preserve"><tspan x="8" dy="0">10.96.2.0/24</tspan></text></svg></g></g></g><g pointer-events="auto"><g></g><g></g><g></g><g></g><g></g><g></g><g></g><g></g><g></g><g></g></g></g></svg>